<svg xmlns="http://www.w3.org/2000/svg">

  <svg id="circle" width="16" height="16" fill="currentColor" class="bi bi-circle-fill" viewBox="0 0 16 16">
    <circle cx="8" cy="8" r="8"/>
  </svg>

  <svg id="diamond" width="16" height="16" fill="currentColor" class="bi bi-diamond-fill" viewBox="0 0 16 16">
    <path fill-rule="evenodd" d="M6.95.435c.58-.58 1.52-.58 2.1 0l6.515 6.516c.58.58.58 1.519 0 2.098L9.05 15.565c-.58.58-1.519.58-2.098 0L.435 9.05a1.482 1.482 0 0 1 0-2.098L6.95.435z"/>
  </svg>

  <svg id="square" width="16" height="16" fill="currentColor" class="bi bi-square-fill" viewBox="0 0 16 16">
    <path d="M0 2a2 2 0 0 1 2-2h12a2 2 0 0 1 2 2v12a2 2 0 0 1-2 2H2a2 2 0 0 1-2-2V2z"/>
  </svg>

  <svg id="star" width="16" height="16" fill="currentColor" class="bi bi-star-fill" viewBox="0 0 16 16">
    <path d="M3.612 15.443c-.386.198-.824-.149-.746-.592l.83-4.73L.173 6.765c-.329-.314-.158-.888.283-.95l4.898-.696L7.538.792c.197-.39.73-.39.927 0l2.184 4.327 4.898.696c.441.062.612.636.282.95l-3.522 3.356.83 4.73c.078.443-.36.79-.746.592L8 13.187l-4.389 2.256z"/>
  </svg>

  <svg id="triangle" width="16" height="16" fill="currentColor" class="bi bi-triangle-fill" viewBox="0 0 16 16">
    <path fill-rule="evenodd" d="M7.022 1.566a1.13 1.13 0 0 1 1.96 0l6.857 11.667c.457.778-.092 1.767-.98 1.767H1.144c-.889 0-1.437-.99-.98-1.767L7.022 1.566z"/>
  </svg>

</svg>